<svg id="svg" version="1.1" xmlns="http://www.w3.org/2000/svg" xmlns:xlink="http://www.w3.org/1999/xlink" width="400" height="400" viewBox="0, 0, 400,400"><g id="svgg"><path id="path0" d="M185.200 21.853 C 182.165 22.034,167.149 23.984,166.711 24.255 C 166.547 24.356,164.835 24.696,162.906 25.009 C 159.585 25.548,157.173 26.104,152.600 27.386 C 151.500 27.694,148.890 28.419,146.800 28.997 C 144.710 29.575,142.370 30.286,141.600 30.578 C 140.830 30.871,138.850 31.604,137.200 32.209 C 135.550 32.814,133.633 33.554,132.940 33.854 C 132.246 34.154,131.561 34.400,131.418 34.400 C 131.175 34.400,130.359 34.749,125.600 36.887 C 118.320 40.157,107.804 45.774,103.480 48.700 C 102.424 49.415,101.477 50.000,101.376 50.000 C 101.207 50.000,99.705 51.028,95.400 54.089 C 94.520 54.714,93.350 55.527,92.800 55.895 C 79.771 64.605,58.676 86.695,49.710 101.017 C 49.441 101.448,47.777 104.096,46.012 106.903 C 42.737 112.113,37.304 122.355,35.142 127.396 C 34.480 128.938,33.707 130.740,33.424 131.400 C 31.613 135.616,29.817 140.582,28.216 145.800 C 27.204 149.100,26.185 152.340,25.951 153.000 C 25.512 154.239,25.222 155.509,23.437 164.000 C 22.479 168.557,22.126 170.704,20.711 180.600 C 20.105 184.840,20.108 213.827,20.714 218.400 C 22.961 235.332,24.441 241.973,29.361 257.200 C 30.408 260.441,34.213 270.034,35.865 273.600 C 38.030 278.272,42.227 286.323,43.753 288.731 C 44.356 289.683,45.477 291.573,46.243 292.931 C 47.010 294.289,48.264 296.300,49.030 297.400 C 49.797 298.500,50.643 299.736,50.912 300.147 C 53.257 303.737,61.347 314.068,64.579 317.600 C 67.280 320.553,77.828 331.102,79.683 332.706 C 84.942 337.253,87.043 338.974,90.600 341.644 C 94.713 344.732,102.284 350.000,102.609 350.000 C 102.709 350.000,103.828 350.720,105.096 351.599 C 106.363 352.479,107.521 353.199,107.668 353.199 C 107.816 353.200,109.526 354.119,111.468 355.241 C 115.118 357.351,123.446 361.450,128.000 363.379 C 129.430 363.985,131.332 364.823,132.226 365.240 C 133.121 365.658,134.068 366.000,134.332 366.000 C 134.595 366.000,135.123 366.175,135.505 366.388 C 137.647 367.584,145.806 370.116,154.800 372.376 C 162.356 374.275,164.413 374.732,166.600 375.000 C 167.700 375.134,169.860 375.492,171.400 375.794 C 190.057 379.456,219.724 377.998,241.800 372.333 C 244.220 371.712,247.010 370.999,248.000 370.749 C 248.990 370.499,251.780 369.597,254.200 368.744 C 256.620 367.891,258.780 367.189,259.000 367.183 C 259.220 367.177,260.120 366.825,261.000 366.400 C 261.880 365.975,262.842 365.621,263.138 365.614 C 263.434 365.606,264.154 365.340,264.738 365.023 C 265.322 364.705,266.970 363.963,268.400 363.374 C 272.499 361.684,280.245 357.884,284.425 355.513 C 286.528 354.320,288.508 353.218,288.825 353.065 C 289.141 352.912,290.154 352.295,291.074 351.694 C 291.995 351.092,293.615 350.072,294.674 349.426 C 295.734 348.781,298.735 346.711,301.344 344.826 C 303.954 342.942,306.545 341.099,307.102 340.731 C 307.659 340.363,308.224 339.913,308.357 339.731 C 308.491 339.549,310.040 338.236,311.800 336.813 C 317.738 332.012,324.250 325.776,330.401 319.000 C 334.927 314.013,335.992 312.720,341.108 306.000 C 343.507 302.849,350.000 293.287,350.000 292.905 C 350.000 292.783,350.602 291.764,351.337 290.641 C 353.938 286.671,362.400 270.134,362.400 269.022 C 362.400 268.856,362.655 268.154,362.967 267.460 C 364.667 263.684,365.419 261.685,367.058 256.600 C 368.050 253.520,369.103 250.280,369.399 249.400 C 369.694 248.520,370.408 245.820,370.985 243.400 C 371.562 240.980,372.291 237.920,372.606 236.600 C 373.744 231.823,374.562 226.544,374.581 223.853 L 374.600 221.107 370.600 219.315 C 366.074 217.289,364.413 216.677,356.800 214.231 C 345.647 210.649,346.012 210.535,345.395 217.800 C 344.865 224.046,341.448 239.162,339.021 246.000 C 338.435 247.650,337.709 249.720,337.407 250.600 C 335.738 255.464,332.412 262.925,329.353 268.665 C 312.169 300.917,283.617 326.077,250.200 338.415 C 248.880 338.902,247.170 339.537,246.400 339.824 C 245.630 340.112,243.740 340.704,242.200 341.140 C 240.660 341.576,238.140 342.299,236.600 342.747 C 235.060 343.194,232.990 343.684,232.000 343.835 C 231.010 343.986,229.895 344.266,229.522 344.457 C 228.723 344.866,217.429 346.634,213.400 346.981 C 197.157 348.377,178.187 347.406,167.200 344.617 C 165.990 344.309,163.470 343.674,161.600 343.205 C 157.608 342.202,151.985 340.563,150.000 339.823 C 149.230 339.536,147.520 338.906,146.200 338.422 C 143.118 337.294,139.190 335.508,138.956 335.129 C 138.717 334.742,140.937 333.608,143.200 332.961 C 144.190 332.678,146.260 331.974,147.800 331.396 C 149.340 330.819,151.093 330.191,151.696 330.002 C 165.274 325.741,180.454 315.291,190.338 303.400 C 191.801 301.640,193.329 299.840,193.734 299.400 C 194.139 298.960,195.122 297.610,195.917 296.400 C 196.713 295.190,197.957 293.461,198.682 292.559 C 199.407 291.656,200.000 290.789,200.000 290.632 C 200.000 290.474,201.080 288.706,202.400 286.703 C 203.720 284.699,204.800 282.880,204.800 282.661 C 204.800 282.442,205.048 281.979,205.351 281.631 C 205.855 281.053,210.065 273.525,212.302 269.200 C 212.814 268.210,213.642 266.680,214.142 265.800 C 214.642 264.920,215.742 262.940,216.587 261.400 C 218.825 257.324,218.805 257.358,221.389 253.000 C 224.490 247.768,230.548 238.707,231.433 237.975 C 231.816 237.659,232.419 236.926,232.772 236.347 C 234.560 233.415,244.967 222.903,250.144 218.800 C 251.393 217.810,253.118 216.441,253.977 215.757 C 262.468 209.001,281.098 200.019,286.669 199.995 C 287.291 199.993,288.790 199.724,290.000 199.398 C 295.271 197.978,325.464 197.863,332.550 199.237 C 333.677 199.456,336.328 199.788,338.441 199.976 C 342.122 200.304,343.773 200.613,351.800 202.480 C 356.768 203.635,362.984 205.516,367.400 207.201 C 368.500 207.621,370.660 208.443,372.200 209.027 C 373.740 209.612,375.180 210.213,375.400 210.363 C 375.620 210.513,376.880 211.055,378.200 211.568 C 379.520 212.080,381.590 212.954,382.800 213.509 C 388.072 215.930,392.370 214.559,393.072 210.233 C 393.337 208.598,392.083 205.583,390.746 204.640 C 388.417 202.998,386.395 201.789,382.830 199.907 C 380.723 198.795,378.820 197.754,378.600 197.593 C 377.607 196.869,363.329 190.806,362.600 190.799 C 362.380 190.797,361.750 190.564,361.200 190.282 C 359.542 189.432,350.217 186.583,344.800 185.272 C 338.945 183.855,335.899 183.225,332.861 182.801 C 331.244 182.576,329.174 182.216,328.261 182.001 C 324.145 181.033,306.655 179.901,299.900 180.167 C 285.522 180.731,281.248 179.041,276.715 171.000 C 269.340 157.918,260.720 148.449,247.926 139.376 C 224.566 122.810,189.120 119.387,162.400 131.116 C 159.563 132.362,153.927 135.149,152.500 136.013 C 151.785 136.446,150.670 137.115,150.023 137.500 C 147.357 139.085,143.011 142.206,140.913 144.042 C 139.683 145.119,138.562 146.000,138.424 146.000 C 137.449 146.000,125.997 158.719,123.658 162.400 C 123.308 162.950,121.667 165.162,120.011 167.315 C 118.355 169.469,116.550 171.831,116.000 172.564 C 115.450 173.298,113.200 176.192,111.000 178.995 C 108.800 181.799,106.640 184.595,106.200 185.210 C 103.250 189.332,93.279 200.176,87.789 205.232 C 81.506 211.021,70.814 217.791,63.000 220.931 C 61.460 221.550,59.660 222.296,59.000 222.590 C 54.355 224.656,52.104 224.816,51.825 223.100 C 51.708 222.385,51.317 220.180,50.956 218.200 C 50.131 213.676,49.710 191.185,50.354 186.000 C 51.384 177.707,52.003 173.540,52.558 171.158 C 52.886 169.751,53.542 166.890,54.017 164.800 C 54.891 160.955,55.420 159.127,57.553 152.576 C 58.638 149.245,61.185 142.467,61.952 140.871 C 62.129 140.502,62.643 139.390,63.094 138.400 C 65.718 132.643,70.680 123.554,73.369 119.580 C 74.046 118.579,74.780 117.480,75.000 117.136 C 82.852 104.886,96.791 90.265,109.800 80.632 C 118.670 74.064,128.068 68.656,139.800 63.370 C 150.657 58.477,165.225 54.588,180.400 52.532 C 188.046 51.496,209.220 51.480,216.200 52.505 C 223.918 53.639,230.406 54.817,233.200 55.592 C 243.331 58.404,245.778 59.175,251.600 61.386 C 255.749 62.963,255.581 62.888,262.800 66.334 C 285.296 77.071,305.418 94.290,320.374 115.600 C 323.614 120.216,329.833 130.807,331.179 134.000 C 331.411 134.550,331.799 135.342,332.041 135.760 C 333.992 139.124,339.180 152.887,340.877 159.200 C 342.533 165.362,343.984 171.891,343.993 173.225 C 344.004 174.810,345.826 176.197,348.600 176.732 C 349.920 176.987,352.620 177.653,354.600 178.213 C 356.580 178.773,359.100 179.481,360.200 179.787 C 361.300 180.093,363.190 180.703,364.400 181.144 C 376.812 185.666,375.868 185.858,375.226 178.952 C 374.787 174.221,374.455 172.172,372.770 163.800 C 368.620 143.174,361.098 124.261,349.702 105.800 C 340.607 91.065,327.973 76.300,314.800 65.011 C 313.590 63.974,312.150 62.724,311.600 62.233 C 307.082 58.201,295.592 50.240,287.600 45.604 C 283.022 42.949,272.763 37.600,272.248 37.600 C 272.128 37.600,270.719 36.982,269.115 36.227 C 266.039 34.777,259.559 32.225,257.200 31.534 C 256.430 31.308,255.260 30.885,254.600 30.594 C 251.995 29.444,238.032 25.734,233.600 25.014 C 231.730 24.710,229.930 24.360,229.600 24.236 C 225.246 22.593,197.663 21.113,185.200 21.853 M225.076 166.737 C 235.872 172.245,232.460 187.738,220.451 187.731 C 215.690 187.728,213.399 186.450,210.746 182.316 C 205.143 173.584,215.796 162.002,225.076 166.737 " stroke="none" fill="#26a41e" fill-rule="evenodd"></path><path id="path1" d="M167.200 0.400 C 167.200 0.626,166.067 0.800,164.600 0.800 C 162.533 0.800,161.836 0.964,161.200 1.600 C 160.520 2.280,159.867 2.400,156.854 2.400 C 153.914 2.400,153.134 2.537,152.291 3.200 C 151.615 3.731,150.668 4.000,149.470 4.000 C 147.287 4.000,146.400 4.301,146.400 5.043 C 146.400 5.437,145.871 5.600,144.596 5.600 C 143.287 5.600,142.604 5.820,142.107 6.400 C 141.548 7.053,140.927 7.200,138.725 7.200 C 136.438 7.200,135.963 7.321,135.600 8.000 C 135.285 8.588,134.762 8.800,133.629 8.800 C 132.689 8.800,132.003 9.015,131.875 9.349 C 131.759 9.652,131.025 10.019,130.245 10.165 C 129.464 10.312,128.593 10.664,128.308 10.949 C 128.024 11.233,126.803 11.583,125.596 11.726 C 124.355 11.873,123.207 12.250,122.956 12.593 C 122.712 12.927,122.127 13.200,121.656 13.200 C 121.185 13.200,120.450 13.550,120.022 13.978 C 119.595 14.405,118.617 14.873,117.850 15.017 C 117.083 15.161,116.359 15.531,116.240 15.839 C 116.121 16.150,115.484 16.400,114.813 16.400 C 114.133 16.400,113.248 16.752,112.800 17.200 C 112.360 17.640,111.661 18.000,111.247 18.000 C 110.832 18.000,110.406 18.334,110.299 18.742 C 110.156 19.291,109.608 19.540,108.192 19.700 C 107.029 19.831,106.138 20.167,105.920 20.558 C 105.722 20.911,105.252 21.200,104.876 21.200 C 104.500 21.200,103.968 21.560,103.693 22.000 C 103.416 22.443,102.760 22.800,102.224 22.800 C 101.605 22.800,101.162 23.090,101.000 23.600 C 100.812 24.191,100.395 24.400,99.400 24.400 C 98.405 24.400,97.988 24.609,97.800 25.200 C 97.660 25.640,97.198 26.000,96.773 26.000 C 96.348 26.000,96.000 26.262,96.000 26.582 C 96.000 26.930,95.438 27.269,94.600 27.426 C 93.830 27.571,93.200 27.923,93.200 28.209 C 93.200 28.505,92.508 28.847,91.600 29.000 C 90.616 29.166,90.000 29.488,90.000 29.835 C 90.000 30.146,89.713 30.400,89.363 30.400 C 89.012 30.400,88.635 30.743,88.526 31.162 C 88.399 31.648,87.832 32.018,86.963 32.181 C 86.213 32.321,85.600 32.613,85.600 32.828 C 85.600 33.044,85.150 33.391,84.600 33.600 C 84.050 33.809,83.600 34.255,83.600 34.590 C 83.600 34.926,83.268 35.200,82.862 35.200 C 82.456 35.200,81.798 35.560,81.400 36.000 C 81.002 36.440,80.344 36.800,79.938 36.800 C 79.532 36.800,79.200 37.074,79.200 37.410 C 79.200 37.745,78.795 38.179,78.300 38.373 C 77.324 38.757,76.303 39.834,75.887 40.918 C 75.709 41.383,75.175 41.600,74.213 41.600 C 73.067 41.600,72.800 41.751,72.800 42.400 C 72.800 42.933,72.533 43.200,72.000 43.200 C 71.560 43.200,71.200 43.458,71.200 43.773 C 71.200 44.088,70.840 44.460,70.400 44.600 C 69.960 44.740,69.600 45.089,69.600 45.377 C 69.600 45.665,69.052 46.010,68.382 46.144 C 67.485 46.323,67.016 46.744,66.599 47.740 C 66.183 48.736,65.713 49.157,64.817 49.337 C 64.129 49.474,63.600 49.833,63.600 50.163 C 63.600 50.484,63.240 50.860,62.800 51.000 C 62.360 51.140,62.000 51.500,62.000 51.800 C 62.000 52.100,61.640 52.460,61.200 52.600 C 60.760 52.740,60.400 53.112,60.400 53.427 C 60.400 53.742,60.040 54.000,59.600 54.000 C 59.083 54.000,58.800 54.267,58.800 54.753 C 58.800 55.170,58.443 55.600,58.000 55.716 C 57.560 55.831,57.200 56.191,57.200 56.516 C 57.200 56.841,56.840 57.201,56.400 57.316 C 55.960 57.431,55.600 57.812,55.600 58.163 C 55.600 58.533,55.265 58.800,54.800 58.800 C 54.267 58.800,54.000 59.067,54.000 59.600 C 54.000 60.040,53.742 60.400,53.427 60.400 C 53.112 60.400,52.746 60.741,52.614 61.157 C 52.482 61.573,52.019 62.006,51.587 62.119 C 51.154 62.233,50.800 62.612,50.800 62.963 C 50.800 63.313,50.544 63.600,50.232 63.600 C 49.919 63.600,49.544 64.144,49.398 64.809 C 49.205 65.689,48.759 66.173,47.760 66.591 C 46.744 67.016,46.324 67.481,46.144 68.382 C 46.010 69.052,45.653 69.600,45.350 69.600 C 45.048 69.600,44.800 69.887,44.800 70.237 C 44.800 70.588,44.440 70.969,44.000 71.084 C 43.557 71.200,43.200 71.630,43.200 72.047 C 43.200 72.533,42.917 72.800,42.400 72.800 C 41.751 72.800,41.600 73.067,41.600 74.213 C 41.600 75.175,41.383 75.709,40.918 75.887 C 39.834 76.303,38.757 77.324,38.373 78.300 C 38.179 78.795,37.745 79.200,37.410 79.200 C 37.074 79.200,36.800 79.532,36.800 79.938 C 36.800 80.344,36.440 81.002,36.000 81.400 C 35.560 81.798,35.200 82.456,35.200 82.862 C 35.200 83.268,34.924 83.600,34.587 83.600 C 34.251 83.600,33.859 83.901,33.718 84.269 C 33.577 84.638,33.132 85.268,32.731 85.669 C 32.329 86.071,32.000 86.829,32.000 87.353 C 32.000 87.970,31.718 88.381,31.200 88.516 C 30.760 88.631,30.400 89.012,30.400 89.363 C 30.400 89.713,30.146 90.000,29.835 90.000 C 29.488 90.000,29.166 90.616,29.000 91.600 C 28.834 92.584,28.512 93.200,28.165 93.200 C 27.854 93.200,27.600 93.560,27.600 94.000 C 27.600 94.440,27.240 95.160,26.800 95.600 C 26.360 96.040,26.000 96.658,26.000 96.973 C 26.000 97.288,25.640 97.660,25.200 97.800 C 24.612 97.987,24.400 98.405,24.400 99.380 C 24.400 100.370,24.197 100.760,23.600 100.916 C 23.060 101.057,22.800 101.462,22.800 102.159 C 22.800 102.760,22.465 103.403,22.000 103.693 C 21.560 103.968,21.200 104.500,21.200 104.876 C 21.200 105.252,20.911 105.722,20.558 105.920 C 20.167 106.138,19.831 107.029,19.700 108.192 C 19.540 109.608,19.291 110.156,18.742 110.299 C 18.334 110.406,18.000 110.832,18.000 111.247 C 18.000 111.661,17.640 112.360,17.200 112.800 C 16.760 113.240,16.400 114.118,16.400 114.751 C 16.400 115.384,16.142 116.117,15.826 116.379 C 15.510 116.641,15.132 117.401,14.985 118.068 C 14.838 118.736,14.377 119.623,13.959 120.041 C 13.542 120.458,13.200 121.185,13.200 121.656 C 13.200 122.127,12.927 122.712,12.593 122.956 C 12.250 123.207,11.873 124.355,11.726 125.596 C 11.583 126.803,11.233 128.024,10.949 128.308 C 10.664 128.593,10.312 129.464,10.165 130.245 C 10.019 131.025,9.652 131.759,9.349 131.875 C 9.015 132.003,8.800 132.689,8.800 133.629 C 8.800 134.762,8.588 135.285,8.000 135.600 C 7.321 135.963,7.200 136.438,7.200 138.725 C 7.200 140.927,7.053 141.548,6.400 142.107 C 5.820 142.604,5.600 143.287,5.600 144.596 C 5.600 145.871,5.437 146.400,5.043 146.400 C 4.301 146.400,4.000 147.287,4.000 149.470 C 4.000 150.668,3.731 151.615,3.200 152.291 C 2.537 153.134,2.400 153.914,2.400 156.854 C 2.400 159.867,2.280 160.520,1.600 161.200 C 0.964 161.836,0.800 162.533,0.800 164.600 C 0.800 166.067,0.626 167.200,0.400 167.200 C 0.137 167.200,0.000 178.400,0.000 200.000 C 0.000 221.600,0.137 232.800,0.400 232.800 C 0.626 232.800,0.800 233.933,0.800 235.400 C 0.800 237.467,0.964 238.164,1.600 238.800 C 2.280 239.480,2.400 240.133,2.400 243.146 C 2.400 246.086,2.537 246.866,3.200 247.709 C 3.731 248.385,4.000 249.332,4.000 250.530 C 4.000 252.713,4.301 253.600,5.043 253.600 C 5.437 253.600,5.600 254.129,5.600 255.404 C 5.600 256.713,5.820 257.396,6.400 257.893 C 7.053 258.452,7.200 259.073,7.200 261.275 C 7.200 263.562,7.321 264.037,8.000 264.400 C 8.588 264.715,8.800 265.238,8.800 266.371 C 8.800 267.311,9.015 267.997,9.349 268.125 C 9.652 268.241,10.019 268.975,10.165 269.755 C 10.312 270.536,10.664 271.407,10.949 271.692 C 11.233 271.976,11.583 273.197,11.726 274.404 C 11.873 275.645,12.250 276.793,12.593 277.044 C 12.927 277.288,13.200 277.873,13.200 278.344 C 13.200 278.815,13.542 279.542,13.959 279.959 C 14.377 280.377,14.838 281.264,14.985 281.932 C 15.132 282.599,15.510 283.359,15.826 283.621 C 16.142 283.883,16.400 284.616,16.400 285.249 C 16.400 285.882,16.760 286.760,17.200 287.200 C 17.640 287.640,18.000 288.348,18.000 288.773 C 18.000 289.198,18.337 289.653,18.749 289.784 C 19.293 289.956,19.556 290.529,19.707 291.871 C 19.832 292.982,20.172 293.865,20.558 294.080 C 20.911 294.278,21.200 294.748,21.200 295.124 C 21.200 295.500,21.560 296.032,22.000 296.307 C 22.465 296.597,22.800 297.240,22.800 297.841 C 22.800 298.538,23.060 298.943,23.600 299.084 C 24.197 299.240,24.400 299.630,24.400 300.620 C 24.400 301.595,24.612 302.013,25.200 302.200 C 25.640 302.340,26.000 302.712,26.000 303.027 C 26.000 303.342,26.360 303.960,26.800 304.400 C 27.240 304.840,27.600 305.560,27.600 306.000 C 27.600 306.440,27.854 306.800,28.165 306.800 C 28.512 306.800,28.834 307.416,29.000 308.400 C 29.166 309.384,29.488 310.000,29.835 310.000 C 30.146 310.000,30.400 310.287,30.400 310.637 C 30.400 310.988,30.760 311.369,31.200 311.484 C 31.718 311.619,32.000 312.030,32.000 312.647 C 32.000 313.171,32.329 313.929,32.731 314.331 C 33.132 314.732,33.577 315.362,33.718 315.731 C 33.859 316.099,34.251 316.400,34.587 316.400 C 34.924 316.400,35.200 316.732,35.200 317.138 C 35.200 317.544,35.560 318.202,36.000 318.600 C 36.440 318.998,36.800 319.635,36.800 320.015 C 36.800 320.396,37.160 320.801,37.600 320.916 C 38.068 321.038,38.400 321.462,38.400 321.935 C 38.400 322.723,40.279 324.400,41.162 324.400 C 41.403 324.400,41.600 325.030,41.600 325.800 C 41.600 326.933,41.752 327.200,42.400 327.200 C 42.917 327.200,43.200 327.467,43.200 327.953 C 43.200 328.370,43.557 328.800,44.000 328.916 C 44.440 329.031,44.800 329.412,44.800 329.763 C 44.800 330.113,45.048 330.400,45.350 330.400 C 45.653 330.400,46.010 330.948,46.144 331.618 C 46.323 332.515,46.744 332.984,47.740 333.401 C 48.736 333.817,49.157 334.287,49.337 335.183 C 49.480 335.901,49.830 336.400,50.190 336.400 C 50.526 336.400,50.800 336.687,50.800 337.037 C 50.800 337.388,51.154 337.767,51.587 337.881 C 52.019 337.994,52.482 338.427,52.614 338.843 C 52.746 339.259,53.112 339.600,53.427 339.600 C 53.742 339.600,54.000 339.960,54.000 340.400 C 54.000 340.933,54.267 341.200,54.800 341.200 C 55.265 341.200,55.600 341.467,55.600 341.837 C 55.600 342.188,55.960 342.569,56.400 342.684 C 56.840 342.799,57.200 343.159,57.200 343.484 C 57.200 343.809,57.560 344.169,58.000 344.284 C 58.443 344.400,58.800 344.830,58.800 345.247 C 58.800 345.733,59.083 346.000,59.600 346.000 C 60.040 346.000,60.400 346.258,60.400 346.573 C 60.400 346.888,60.760 347.260,61.200 347.400 C 61.640 347.540,62.000 347.900,62.000 348.200 C 62.000 348.500,62.360 348.860,62.800 349.000 C 63.240 349.140,63.600 349.516,63.600 349.837 C 63.600 350.167,64.129 350.526,64.817 350.663 C 65.713 350.843,66.183 351.264,66.599 352.260 C 67.016 353.256,67.485 353.677,68.382 353.856 C 69.052 353.990,69.600 354.335,69.600 354.623 C 69.600 354.911,69.960 355.260,70.400 355.400 C 70.840 355.540,71.200 355.891,71.200 356.180 C 71.200 356.470,71.560 356.801,72.000 356.916 C 72.440 357.031,72.800 357.412,72.800 357.763 C 72.800 358.225,73.187 358.400,74.213 358.400 C 75.175 358.400,75.709 358.617,75.887 359.082 C 76.303 360.166,77.324 361.243,78.300 361.627 C 78.795 361.821,79.200 362.255,79.200 362.590 C 79.200 362.926,79.532 363.200,79.938 363.200 C 80.344 363.200,81.002 363.560,81.400 364.000 C 81.798 364.440,82.456 364.800,82.862 364.800 C 83.333 364.800,83.600 365.089,83.600 365.600 C 83.600 366.137,83.867 366.400,84.413 366.400 C 84.859 366.400,85.327 366.665,85.451 366.989 C 85.576 367.313,86.290 367.693,87.039 367.834 C 87.860 367.988,88.400 368.324,88.400 368.682 C 88.400 369.008,88.760 369.369,89.200 369.484 C 89.640 369.599,90.000 369.926,90.000 370.211 C 90.000 370.504,90.696 370.847,91.600 371.000 C 92.508 371.153,93.200 371.495,93.200 371.791 C 93.200 372.077,93.830 372.429,94.600 372.574 C 95.370 372.718,96.000 373.069,96.000 373.354 C 96.000 373.639,96.450 374.077,97.000 374.327 C 97.550 374.578,98.000 374.967,98.000 375.191 C 98.000 375.416,98.618 375.600,99.373 375.600 C 100.395 375.600,100.811 375.805,101.000 376.400 C 101.162 376.910,101.605 377.200,102.224 377.200 C 102.760 377.200,103.416 377.557,103.693 378.000 C 103.968 378.440,104.500 378.800,104.876 378.800 C 105.252 378.800,105.722 379.089,105.920 379.442 C 106.138 379.833,107.029 380.169,108.192 380.300 C 109.608 380.460,110.156 380.709,110.299 381.258 C 110.406 381.666,110.832 382.000,111.247 382.000 C 111.661 382.000,112.360 382.360,112.800 382.800 C 113.248 383.248,114.133 383.600,114.813 383.600 C 115.484 383.600,116.121 383.850,116.240 384.161 C 116.359 384.469,117.083 384.839,117.850 384.983 C 118.617 385.127,119.595 385.595,120.022 386.022 C 120.450 386.450,121.185 386.800,121.656 386.800 C 122.127 386.800,122.716 387.079,122.965 387.419 C 123.237 387.792,124.330 388.133,125.709 388.275 C 126.969 388.406,128.000 388.638,128.000 388.792 C 128.000 389.192,129.893 390.000,130.831 390.000 C 131.268 390.000,131.725 390.261,131.848 390.581 C 131.971 390.900,132.853 391.279,133.809 391.422 C 134.764 391.566,135.643 391.934,135.761 392.241 C 135.915 392.644,136.736 392.800,138.699 392.800 C 140.927 392.800,141.547 392.945,142.107 393.600 C 142.604 394.180,143.287 394.400,144.596 394.400 C 145.871 394.400,146.400 394.563,146.400 394.957 C 146.400 395.699,147.287 396.000,149.470 396.000 C 150.668 396.000,151.615 396.269,152.291 396.800 C 153.134 397.463,153.914 397.600,156.854 397.600 C 159.867 397.600,160.520 397.720,161.200 398.400 C 161.836 399.036,162.533 399.200,164.600 399.200 C 166.067 399.200,167.200 399.374,167.200 399.600 C 167.200 399.863,178.400 400.000,200.000 400.000 C 221.600 400.000,232.800 399.863,232.800 399.600 C 232.800 399.374,233.933 399.200,235.400 399.200 C 237.467 399.200,238.164 399.036,238.800 398.400 C 239.480 397.720,240.133 397.600,243.146 397.600 C 246.086 397.600,246.866 397.463,247.709 396.800 C 248.385 396.269,249.332 396.000,250.530 396.000 C 252.713 396.000,253.600 395.699,253.600 394.957 C 253.600 394.563,254.129 394.400,255.404 394.400 C 256.713 394.400,257.396 394.180,257.893 393.600 C 258.453 392.945,259.073 392.800,261.301 392.800 C 263.264 392.800,264.085 392.644,264.239 392.241 C 264.357 391.934,265.236 391.566,266.191 391.422 C 267.147 391.279,268.029 390.900,268.152 390.581 C 268.275 390.261,268.732 390.000,269.169 390.000 C 270.107 390.000,272.000 389.192,272.000 388.792 C 272.000 388.638,273.031 388.406,274.291 388.275 C 275.670 388.133,276.763 387.792,277.035 387.419 C 277.284 387.079,277.873 386.800,278.344 386.800 C 278.815 386.800,279.550 386.450,279.978 386.022 C 280.405 385.595,281.383 385.127,282.150 384.983 C 282.917 384.839,283.641 384.469,283.760 384.161 C 283.879 383.850,284.516 383.600,285.187 383.600 C 285.867 383.600,286.752 383.248,287.200 382.800 C 287.640 382.360,288.348 382.000,288.773 382.000 C 289.198 382.000,289.653 381.663,289.784 381.251 C 289.956 380.707,290.529 380.444,291.871 380.293 C 292.982 380.168,293.865 379.828,294.080 379.442 C 294.278 379.089,294.748 378.800,295.124 378.800 C 295.500 378.800,296.032 378.440,296.307 378.000 C 296.584 377.557,297.240 377.200,297.776 377.200 C 298.395 377.200,298.838 376.910,299.000 376.400 C 299.189 375.805,299.605 375.600,300.627 375.600 C 301.382 375.600,302.000 375.416,302.000 375.191 C 302.000 374.967,302.450 374.578,303.000 374.327 C 303.550 374.077,304.000 373.651,304.000 373.380 C 304.000 373.110,304.630 372.771,305.400 372.626 C 306.189 372.478,306.800 372.125,306.800 371.817 C 306.800 371.491,307.446 371.161,308.400 371.000 C 309.304 370.847,310.000 370.504,310.000 370.211 C 310.000 369.926,310.360 369.599,310.800 369.484 C 311.240 369.369,311.600 369.008,311.600 368.682 C 311.600 368.324,312.140 367.988,312.961 367.834 C 313.710 367.693,314.424 367.313,314.549 366.989 C 314.673 366.665,315.141 366.400,315.587 366.400 C 316.133 366.400,316.400 366.137,316.400 365.600 C 316.400 365.089,316.667 364.800,317.138 364.800 C 317.544 364.800,318.202 364.440,318.600 364.000 C 318.998 363.560,319.656 363.200,320.062 363.200 C 320.468 363.200,320.800 362.924,320.800 362.587 C 320.800 362.251,321.115 361.862,321.500 361.724 C 322.464 361.378,324.375 359.510,324.389 358.900 C 324.396 358.597,324.953 358.400,325.800 358.400 C 326.749 358.400,327.200 358.215,327.200 357.827 C 327.200 357.512,327.560 357.140,328.000 357.000 C 328.440 356.860,328.800 356.500,328.800 356.200 C 328.800 355.900,329.160 355.540,329.600 355.400 C 330.040 355.260,330.400 354.911,330.400 354.623 C 330.400 354.335,330.948 353.990,331.618 353.856 C 332.515 353.677,332.984 353.256,333.401 352.260 C 333.817 351.264,334.287 350.843,335.183 350.663 C 335.871 350.526,336.400 350.167,336.400 349.837 C 336.400 349.516,336.760 349.140,337.200 349.000 C 337.640 348.860,338.000 348.500,338.000 348.200 C 338.000 347.900,338.360 347.540,338.800 347.400 C 339.240 347.260,339.600 346.888,339.600 346.573 C 339.600 346.258,339.960 346.000,340.400 346.000 C 340.917 346.000,341.200 345.733,341.200 345.247 C 341.200 344.830,341.557 344.400,342.000 344.284 C 342.440 344.169,342.800 343.809,342.800 343.484 C 342.800 343.159,343.160 342.799,343.600 342.684 C 344.040 342.569,344.400 342.188,344.400 341.837 C 344.400 341.467,344.735 341.200,345.200 341.200 C 345.733 341.200,346.000 340.933,346.000 340.400 C 346.000 339.960,346.258 339.600,346.573 339.600 C 346.888 339.600,347.254 339.259,347.386 338.843 C 347.518 338.427,347.981 337.994,348.413 337.881 C 348.846 337.767,349.200 337.388,349.200 337.037 C 349.200 336.687,349.475 336.400,349.810 336.400 C 350.170 336.400,350.520 335.901,350.663 335.183 C 350.843 334.287,351.264 333.817,352.260 333.401 C 353.256 332.984,353.677 332.515,353.856 331.618 C 353.990 330.948,354.347 330.400,354.650 330.400 C 354.953 330.400,355.200 330.113,355.200 329.763 C 355.200 329.412,355.554 329.033,355.987 328.919 C 356.419 328.806,356.882 328.373,357.014 327.957 C 357.146 327.541,357.512 327.200,357.827 327.200 C 358.215 327.200,358.400 326.749,358.400 325.800 C 358.400 325.030,358.597 324.400,358.838 324.400 C 359.721 324.400,361.600 322.723,361.600 321.935 C 361.600 321.462,361.932 321.038,362.400 320.916 C 362.840 320.801,363.200 320.396,363.200 320.015 C 363.200 319.635,363.560 318.998,364.000 318.600 C 364.440 318.202,364.800 317.544,364.800 317.138 C 364.800 316.732,365.076 316.400,365.413 316.400 C 365.749 316.400,366.141 316.099,366.282 315.731 C 366.423 315.362,366.868 314.732,367.269 314.331 C 367.671 313.929,368.000 313.171,368.000 312.647 C 368.000 312.030,368.282 311.619,368.800 311.484 C 369.240 311.369,369.600 310.988,369.600 310.637 C 369.600 310.287,369.854 310.000,370.165 310.000 C 370.512 310.000,370.834 309.384,371.000 308.400 C 371.157 307.469,371.493 306.800,371.803 306.800 C 372.097 306.800,372.455 306.259,372.601 305.597 C 372.746 304.935,373.210 304.209,373.633 303.983 C 374.055 303.757,374.400 303.303,374.400 302.973 C 374.400 302.644,374.670 302.271,375.000 302.145 C 375.364 302.005,375.600 301.400,375.600 300.604 C 375.600 299.630,375.805 299.240,376.400 299.084 C 376.940 298.943,377.200 298.538,377.200 297.841 C 377.200 297.240,377.535 296.597,378.000 296.307 C 378.440 296.032,378.800 295.500,378.800 295.124 C 378.800 294.748,379.089 294.278,379.442 294.080 C 379.828 293.865,380.168 292.982,380.293 291.871 C 380.444 290.529,380.707 289.956,381.251 289.784 C 381.663 289.653,382.000 289.198,382.000 288.773 C 382.000 288.348,382.360 287.640,382.800 287.200 C 383.240 286.760,383.600 285.882,383.600 285.249 C 383.600 284.616,383.858 283.883,384.174 283.621 C 384.490 283.359,384.868 282.599,385.015 281.932 C 385.162 281.264,385.623 280.377,386.041 279.959 C 386.458 279.542,386.800 278.815,386.800 278.344 C 386.800 277.873,387.079 277.284,387.419 277.035 C 387.792 276.763,388.133 275.670,388.275 274.291 C 388.406 273.031,388.638 272.000,388.792 272.000 C 389.186 272.000,390.000 270.113,390.000 269.201 C 390.000 268.782,390.276 268.285,390.613 268.097 C 390.950 267.908,391.337 267.044,391.473 266.177 C 391.610 265.310,391.964 264.456,392.261 264.280 C 392.628 264.062,392.800 263.102,392.800 261.269 C 392.800 259.073,392.947 258.452,393.600 257.893 C 394.180 257.396,394.400 256.713,394.400 255.404 C 394.400 254.129,394.563 253.600,394.957 253.600 C 395.699 253.600,396.000 252.713,396.000 250.530 C 396.000 249.332,396.269 248.385,396.800 247.709 C 397.463 246.866,397.600 246.086,397.600 243.146 C 397.600 240.133,397.720 239.480,398.400 238.800 C 399.036 238.164,399.200 237.467,399.200 235.400 C 399.200 233.933,399.374 232.800,399.600 232.800 C 399.863 232.800,400.000 221.600,400.000 200.000 C 400.000 178.400,399.863 167.200,399.600 167.200 C 399.374 167.200,399.200 166.067,399.200 164.600 C 399.200 162.533,399.036 161.836,398.400 161.200 C 397.720 160.520,397.600 159.867,397.600 156.854 C 397.600 153.914,397.463 153.134,396.800 152.291 C 396.269 151.615,396.000 150.668,396.000 149.470 C 396.000 147.287,395.699 146.400,394.957 146.400 C 394.563 146.400,394.400 145.871,394.400 144.596 C 394.400 143.287,394.180 142.604,393.600 142.107 C 392.945 141.547,392.800 140.927,392.800 138.699 C 392.800 136.736,392.644 135.915,392.241 135.761 C 391.934 135.643,391.566 134.764,391.422 133.809 C 391.279 132.853,390.900 131.971,390.581 131.848 C 390.261 131.725,390.000 131.268,390.000 130.831 C 390.000 129.893,389.192 128.000,388.792 128.000 C 388.638 128.000,388.406 126.969,388.275 125.709 C 388.133 124.330,387.792 123.237,387.419 122.965 C 387.079 122.716,386.800 122.127,386.800 121.656 C 386.800 121.185,386.458 120.458,386.041 120.041 C 385.623 119.623,385.162 118.736,385.015 118.068 C 384.868 117.401,384.490 116.641,384.174 116.379 C 383.858 116.117,383.600 115.384,383.600 114.751 C 383.600 114.118,383.240 113.240,382.800 112.800 C 382.360 112.360,382.000 111.661,382.000 111.247 C 382.000 110.832,381.666 110.406,381.258 110.299 C 380.709 110.156,380.460 109.608,380.300 108.192 C 380.169 107.029,379.833 106.138,379.442 105.920 C 379.089 105.722,378.800 105.252,378.800 104.876 C 378.800 104.500,378.440 103.968,378.000 103.693 C 377.535 103.403,377.200 102.760,377.200 102.159 C 377.200 101.462,376.940 101.057,376.400 100.916 C 375.833 100.768,375.600 100.370,375.600 99.553 C 375.600 98.919,375.285 98.059,374.900 97.642 C 373.082 95.673,372.400 94.671,372.400 93.966 C 372.400 93.545,372.146 93.200,371.835 93.200 C 371.488 93.200,371.166 92.584,371.000 91.600 C 370.847 90.696,370.504 90.000,370.211 90.000 C 369.926 90.000,369.599 89.640,369.484 89.200 C 369.369 88.760,368.988 88.400,368.637 88.400 C 368.224 88.400,368.000 88.048,368.000 87.400 C 368.000 86.850,367.671 86.071,367.269 85.669 C 366.868 85.268,366.423 84.638,366.282 84.269 C 366.141 83.901,365.749 83.600,365.413 83.600 C 365.076 83.600,364.800 83.268,364.800 82.862 C 364.800 82.456,364.440 81.798,364.000 81.400 C 363.560 81.002,363.200 80.344,363.200 79.938 C 363.200 79.532,362.926 79.200,362.590 79.200 C 362.255 79.200,361.821 78.795,361.627 78.300 C 361.243 77.324,360.166 76.303,359.082 75.887 C 358.617 75.709,358.400 75.175,358.400 74.213 C 358.400 73.187,358.225 72.800,357.763 72.800 C 357.412 72.800,357.031 72.440,356.916 72.000 C 356.801 71.560,356.441 71.200,356.116 71.200 C 355.791 71.200,355.431 70.840,355.316 70.400 C 355.201 69.960,354.880 69.600,354.603 69.600 C 354.327 69.600,353.990 69.052,353.856 68.382 C 353.676 67.481,353.256 67.016,352.240 66.591 C 351.241 66.173,350.795 65.689,350.602 64.809 C 350.456 64.144,350.102 63.600,349.815 63.600 C 349.528 63.600,349.199 63.240,349.084 62.800 C 348.969 62.360,348.600 62.000,348.264 62.000 C 347.929 62.000,347.540 61.640,347.400 61.200 C 347.260 60.760,346.888 60.400,346.573 60.400 C 346.258 60.400,346.000 60.040,346.000 59.600 C 346.000 59.083,345.733 58.800,345.247 58.800 C 344.830 58.800,344.400 58.443,344.284 58.000 C 344.169 57.560,343.809 57.200,343.484 57.200 C 343.159 57.200,342.799 56.840,342.684 56.400 C 342.569 55.960,342.188 55.600,341.837 55.600 C 341.467 55.600,341.200 55.265,341.200 54.800 C 341.200 54.267,340.933 54.000,340.400 54.000 C 339.960 54.000,339.600 53.742,339.600 53.427 C 339.600 53.112,339.240 52.740,338.800 52.600 C 338.360 52.460,338.000 52.100,338.000 51.800 C 338.000 51.500,337.640 51.140,337.200 51.000 C 336.760 50.860,336.400 50.484,336.400 50.163 C 336.400 49.833,335.871 49.474,335.183 49.337 C 334.287 49.157,333.817 48.736,333.401 47.740 C 332.984 46.744,332.515 46.323,331.618 46.144 C 330.948 46.010,330.400 45.665,330.400 45.377 C 330.400 45.089,330.040 44.740,329.600 44.600 C 329.160 44.460,328.800 44.088,328.800 43.773 C 328.800 43.458,328.440 43.200,328.000 43.200 C 327.467 43.200,327.200 42.933,327.200 42.400 C 327.200 41.752,326.933 41.600,325.800 41.600 C 324.953 41.600,324.396 41.403,324.389 41.100 C 324.375 40.490,322.464 38.622,321.500 38.276 C 321.115 38.138,320.800 37.749,320.800 37.413 C 320.800 37.076,320.468 36.800,320.062 36.800 C 319.656 36.800,318.998 36.440,318.600 36.000 C 318.202 35.560,317.544 35.200,317.138 35.200 C 316.732 35.200,316.400 34.926,316.400 34.590 C 316.400 34.255,315.950 33.809,315.400 33.600 C 314.850 33.391,314.400 33.044,314.400 32.828 C 314.400 32.613,313.770 32.318,313.000 32.174 C 312.148 32.014,311.600 31.679,311.600 31.318 C 311.600 30.992,311.240 30.631,310.800 30.516 C 310.360 30.401,310.000 30.074,310.000 29.789 C 310.000 29.496,309.304 29.153,308.400 29.000 C 307.492 28.847,306.800 28.505,306.800 28.209 C 306.800 27.923,306.170 27.571,305.400 27.426 C 304.562 27.269,304.000 26.930,304.000 26.582 C 304.000 26.262,303.652 26.000,303.227 26.000 C 302.802 26.000,302.340 25.640,302.200 25.200 C 302.012 24.609,301.595 24.400,300.600 24.400 C 299.605 24.400,299.188 24.191,299.000 23.600 C 298.838 23.090,298.395 22.800,297.776 22.800 C 297.240 22.800,296.584 22.443,296.307 22.000 C 296.032 21.560,295.500 21.200,295.124 21.200 C 294.748 21.200,294.278 20.911,294.080 20.558 C 293.862 20.167,292.971 19.831,291.808 19.700 C 290.392 19.540,289.844 19.291,289.701 18.742 C 289.594 18.334,289.168 18.000,288.753 18.000 C 288.339 18.000,287.640 17.640,287.200 17.200 C 286.752 16.752,285.867 16.400,285.187 16.400 C 284.516 16.400,283.879 16.150,283.760 15.839 C 283.641 15.531,282.917 15.161,282.150 15.017 C 281.383 14.873,280.405 14.405,279.978 13.978 C 279.550 13.550,278.815 13.200,278.344 13.200 C 277.873 13.200,277.288 12.927,277.044 12.593 C 276.793 12.250,275.645 11.873,274.404 11.726 C 273.197 11.583,271.976 11.233,271.692 10.949 C 271.407 10.664,270.536 10.312,269.755 10.165 C 268.975 10.019,268.241 9.652,268.125 9.349 C 267.997 9.015,267.311 8.800,266.371 8.800 C 265.238 8.800,264.715 8.588,264.400 8.000 C 264.037 7.321,263.562 7.200,261.275 7.200 C 259.073 7.200,258.452 7.053,257.893 6.400 C 257.396 5.820,256.713 5.600,255.404 5.600 C 254.129 5.600,253.600 5.437,253.600 5.043 C 253.600 4.301,252.713 4.000,250.530 4.000 C 249.332 4.000,248.385 3.731,247.709 3.200 C 246.866 2.537,246.086 2.400,243.146 2.400 C 240.133 2.400,239.480 2.280,238.800 1.600 C 238.164 0.964,237.467 0.800,235.400 0.800 C 233.933 0.800,232.800 0.626,232.800 0.400 C 232.800 0.137,221.600 0.000,200.000 0.000 C 178.400 0.000,167.200 0.137,167.200 0.400 M221.600 22.979 C 225.670 23.546,229.270 24.111,229.600 24.236 C 229.930 24.360,231.730 24.710,233.600 25.014 C 238.032 25.734,251.995 29.444,254.600 30.594 C 255.260 30.885,256.430 31.308,257.200 31.534 C 259.559 32.225,266.039 34.777,269.115 36.227 C 270.719 36.982,272.128 37.600,272.248 37.600 C 272.763 37.600,283.022 42.949,287.600 45.604 C 295.592 50.240,307.082 58.201,311.600 62.233 C 312.150 62.724,313.590 63.974,314.800 65.011 C 325.803 74.440,336.796 86.702,345.274 99.000 C 358.682 118.449,368.122 140.696,372.770 163.800 C 374.455 172.172,374.787 174.221,375.226 178.952 C 375.868 185.858,376.812 185.666,364.400 181.144 C 363.190 180.703,361.300 180.093,360.200 179.787 C 359.100 179.481,356.580 178.773,354.600 178.213 C 352.620 177.653,349.920 176.987,348.600 176.732 C 345.826 176.197,344.004 174.810,343.993 173.225 C 343.984 171.891,342.533 165.362,340.877 159.200 C 339.180 152.887,333.992 139.124,332.041 135.760 C 331.799 135.342,331.411 134.550,331.179 134.000 C 329.833 130.807,323.614 120.216,320.374 115.600 C 305.418 94.290,285.296 77.071,262.800 66.334 C 255.581 62.888,255.749 62.963,251.600 61.386 C 245.778 59.175,243.331 58.404,233.200 55.592 C 230.406 54.817,223.918 53.639,216.200 52.505 C 209.220 51.480,188.046 51.496,180.400 52.532 C 165.225 54.588,150.657 58.477,139.800 63.370 C 112.274 75.774,89.286 94.847,75.000 117.136 C 74.780 117.480,74.046 118.579,73.369 119.580 C 70.680 123.554,65.718 132.643,63.094 138.400 C 62.643 139.390,62.129 140.502,61.952 140.871 C 61.185 142.467,58.638 149.245,57.553 152.576 C 55.420 159.127,54.891 160.955,54.017 164.800 C 53.542 166.890,52.886 169.751,52.558 171.158 C 52.003 173.540,51.384 177.707,50.354 186.000 C 49.710 191.185,50.131 213.676,50.956 218.200 C 51.317 220.180,51.708 222.385,51.825 223.100 C 52.104 224.816,54.355 224.656,59.000 222.590 C 59.660 222.296,61.460 221.550,63.000 220.931 C 70.814 217.791,81.506 211.021,87.789 205.232 C 93.279 200.176,103.250 189.332,106.200 185.210 C 106.640 184.595,108.800 181.799,111.000 178.995 C 113.200 176.192,115.450 173.298,116.000 172.564 C 116.550 171.831,118.355 169.469,120.011 167.315 C 121.667 165.162,123.308 162.950,123.658 162.400 C 125.997 158.719,137.449 146.000,138.424 146.000 C 138.562 146.000,139.683 145.119,140.913 144.042 C 143.011 142.206,147.357 139.085,150.023 137.500 C 150.670 137.115,151.785 136.446,152.500 136.013 C 174.496 122.701,206.206 120.370,230.600 130.272 C 236.220 132.553,244.269 136.783,247.926 139.376 C 260.720 148.449,269.340 157.918,276.715 171.000 C 281.248 179.041,285.522 180.731,299.900 180.167 C 306.655 179.901,324.145 181.033,328.261 182.001 C 329.174 182.216,331.244 182.576,332.861 182.801 C 335.899 183.225,338.945 183.855,344.800 185.272 C 350.217 186.583,359.542 189.432,361.200 190.282 C 361.750 190.564,362.380 190.797,362.600 190.799 C 363.329 190.806,377.607 196.869,378.600 197.593 C 378.820 197.754,380.723 198.795,382.830 199.907 C 386.395 201.789,388.417 202.998,390.746 204.640 C 392.083 205.583,393.337 208.598,393.072 210.233 C 392.370 214.559,388.072 215.930,382.800 213.509 C 381.590 212.954,379.520 212.080,378.200 211.568 C 376.880 211.055,375.620 210.513,375.400 210.363 C 375.180 210.213,373.740 209.612,372.200 209.027 C 370.660 208.443,368.500 207.621,367.400 207.201 C 362.984 205.516,356.768 203.635,351.800 202.480 C 343.773 200.613,342.122 200.304,338.441 199.976 C 336.328 199.788,333.677 199.456,332.550 199.237 C 325.464 197.863,295.271 197.978,290.000 199.398 C 288.790 199.724,287.291 199.993,286.669 199.995 C 281.098 200.019,262.468 209.001,253.977 215.757 C 253.118 216.441,251.393 217.810,250.144 218.800 C 244.967 222.903,234.560 233.415,232.772 236.347 C 232.419 236.926,231.816 237.659,231.433 237.975 C 230.548 238.707,224.490 247.768,221.389 253.000 C 218.805 257.358,218.825 257.324,216.587 261.400 C 215.742 262.940,214.642 264.920,214.142 265.800 C 213.642 266.680,212.814 268.210,212.302 269.200 C 210.065 273.525,205.855 281.053,205.351 281.631 C 205.048 281.979,204.800 282.442,204.800 282.661 C 204.800 282.880,203.720 284.699,202.400 286.703 C 201.080 288.706,200.000 290.474,200.000 290.632 C 200.000 290.789,199.407 291.656,198.682 292.559 C 197.957 293.461,196.713 295.190,195.917 296.400 C 195.122 297.610,194.139 298.960,193.734 299.400 C 193.329 299.840,191.801 301.640,190.338 303.400 C 180.454 315.291,165.274 325.741,151.696 330.002 C 151.093 330.191,149.340 330.819,147.800 331.396 C 146.260 331.974,144.190 332.678,143.200 332.961 C 140.937 333.608,138.717 334.742,138.956 335.129 C 139.190 335.508,143.118 337.294,146.200 338.422 C 147.520 338.906,149.230 339.536,150.000 339.823 C 151.985 340.563,157.608 342.202,161.600 343.205 C 163.470 343.674,165.990 344.309,167.200 344.617 C 178.187 347.406,197.157 348.377,213.400 346.981 C 217.429 346.634,228.723 344.866,229.522 344.457 C 229.895 344.266,231.010 343.986,232.000 343.835 C 232.990 343.684,235.060 343.194,236.600 342.747 C 238.140 342.299,240.660 341.576,242.200 341.140 C 243.740 340.704,245.630 340.112,246.400 339.824 C 247.170 339.537,248.880 338.902,250.200 338.415 C 283.617 326.077,312.169 300.917,329.353 268.665 C 332.412 262.925,335.738 255.464,337.407 250.600 C 337.709 249.720,338.435 247.650,339.021 246.000 C 341.448 239.162,344.865 224.046,345.395 217.800 C 346.012 210.535,345.647 210.649,356.800 214.231 C 364.413 216.677,366.074 217.289,370.600 219.315 L 374.600 221.107 374.581 223.853 C 374.562 226.544,373.744 231.823,372.606 236.600 C 372.291 237.920,371.562 240.980,370.985 243.400 C 370.408 245.820,369.694 248.520,369.399 249.400 C 369.103 250.280,368.050 253.520,367.058 256.600 C 365.419 261.685,364.667 263.684,362.967 267.460 C 362.655 268.154,362.400 268.856,362.400 269.022 C 362.400 270.134,353.938 286.671,351.337 290.641 C 350.602 291.764,350.000 292.783,350.000 292.905 C 350.000 293.287,343.507 302.849,341.108 306.000 C 335.992 312.720,334.927 314.013,330.401 319.000 C 324.250 325.776,317.738 332.012,311.800 336.813 C 310.040 338.236,308.491 339.549,308.357 339.731 C 308.224 339.913,307.659 340.363,307.102 340.731 C 306.545 341.099,303.954 342.942,301.344 344.826 C 298.735 346.711,295.734 348.781,294.674 349.426 C 293.615 350.072,291.995 351.092,291.074 351.694 C 290.154 352.295,289.141 352.912,288.825 353.065 C 288.508 353.218,286.528 354.320,284.425 355.513 C 280.245 357.884,272.499 361.684,268.400 363.374 C 266.970 363.963,265.322 364.705,264.738 365.023 C 264.154 365.340,263.434 365.606,263.138 365.614 C 262.842 365.621,261.880 365.975,261.000 366.400 C 260.120 366.825,259.220 367.177,259.000 367.183 C 258.780 367.189,256.620 367.891,254.200 368.744 C 251.780 369.597,248.990 370.499,248.000 370.749 C 247.010 370.999,244.220 371.712,241.800 372.333 C 219.724 377.998,190.057 379.456,171.400 375.794 C 169.860 375.492,167.700 375.134,166.600 375.000 C 164.413 374.732,162.356 374.275,154.800 372.376 C 145.806 370.116,137.647 367.584,135.505 366.388 C 135.123 366.175,134.595 366.000,134.332 366.000 C 134.068 366.000,133.121 365.658,132.226 365.240 C 131.332 364.823,129.430 363.985,128.000 363.379 C 123.446 361.450,115.118 357.351,111.468 355.241 C 109.526 354.119,107.816 353.200,107.668 353.199 C 107.521 353.199,106.363 352.479,105.096 351.599 C 103.828 350.720,102.709 350.000,102.609 350.000 C 102.284 350.000,94.713 344.732,90.600 341.644 C 87.043 338.974,84.942 337.253,79.683 332.706 C 77.828 331.102,67.280 320.553,64.579 317.600 C 61.347 314.068,53.257 303.737,50.912 300.147 C 50.643 299.736,49.797 298.500,49.030 297.400 C 48.264 296.300,47.010 294.289,46.243 292.931 C 45.477 291.573,44.356 289.683,43.753 288.731 C 42.227 286.323,38.030 278.272,35.865 273.600 C 34.213 270.034,30.408 260.441,29.361 257.200 C 24.441 241.973,22.961 235.332,20.714 218.400 C 20.108 213.827,20.105 184.840,20.711 180.600 C 22.126 170.704,22.479 168.557,23.437 164.000 C 25.222 155.509,25.512 154.239,25.951 153.000 C 26.185 152.340,27.204 149.100,28.216 145.800 C 29.817 140.582,31.613 135.616,33.424 131.400 C 33.707 130.740,34.480 128.938,35.142 127.396 C 37.304 122.355,42.737 112.113,46.012 106.903 C 47.777 104.096,49.441 101.448,49.710 101.017 C 58.676 86.695,79.771 64.605,92.800 55.895 C 93.350 55.527,94.520 54.714,95.400 54.089 C 99.705 51.028,101.207 50.000,101.376 50.000 C 101.477 50.000,102.424 49.415,103.480 48.700 C 107.804 45.774,118.320 40.157,125.600 36.887 C 130.359 34.749,131.175 34.400,131.418 34.400 C 131.561 34.400,132.246 34.154,132.940 33.854 C 133.633 33.554,135.550 32.814,137.200 32.209 C 138.850 31.604,140.830 30.871,141.600 30.578 C 142.370 30.286,144.710 29.575,146.800 28.997 C 148.890 28.419,151.500 27.694,152.600 27.386 C 157.173 26.104,159.585 25.548,162.906 25.009 C 164.835 24.696,166.547 24.356,166.711 24.255 C 167.149 23.984,182.165 22.034,185.200 21.853 C 193.918 21.336,214.332 21.967,221.600 22.979 M218.200 165.843 C 205.112 169.064,207.031 187.723,220.451 187.731 C 232.460 187.738,235.872 172.245,225.076 166.737 C 223.495 165.930,219.797 165.450,218.200 165.843 " stroke="none" fill="#fbfbfb" fill-rule="evenodd"></path></g></svg>